<?xml version="1.0" encoding="UTF-8"?><svg id="Layer_4" xmlns="http://www.w3.org/2000/svg" width="628" height="702" viewBox="0 0 628 702"><defs><style>.cls-1{fill:#05a84e;}.cls-1,.cls-2{stroke-width:0px;}.cls-2{fill:#036b27;}</style></defs><path class="cls-1" d="M313.12,665.31c-10.06-.1-20.24-2.48-29.45-6.86l-212.68-121.82c-7.21-4.08-17.47-11.51-25.63-23.84-9.56-14.45-11.99-29.01-12.34-38.72l-3-234.26-.03-.37c-.7-8.03-.49-23.93,8.74-40.2,9.61-16.95,23.84-25.34,31.47-28.84l.44-.2,189.96-110.56.5-.38c7.72-5.9,24-15.95,46.38-16.95,1.21-.05,2.44-.08,3.65-.08,23.48,0,40.77,10.12,48.98,16.15l.46.34,7.95,4.54c75.34,43.01,134.85,76.99,172.87,96.92,7.95,4.17,24.34,12.76,36.33,30.7,14.09,21.08,15.03,42.77,14.33,53.82l-.02.31v230.31c-.1,11.27-2.83,22.52-7.9,32.45-9.19,17.98-23.81,27.57-31.71,31.68l-.18.09-201.3,115.17-.13.08c-7.84,4.8-20.62,10.53-36.96,10.53h-.72Z"/><path class="cls-2" d="M311.12,52.22c20.63,0,35.83,8.9,43.06,14.21l.93.68,1,.57,7.4,4.23c75.45,43.08,135.05,77.1,173.22,97.12l.08.04c7.14,3.74,22,11.54,32.58,27.36,12.46,18.63,13.28,37.84,12.67,47.63l-.04.63v230.54c-.1,9.78-2.45,19.46-6.81,27.98-7.92,15.51-20.59,23.8-27.43,27.36l-.35.18-.34.2-201,115-.26.15-.26.16c-6.74,4.13-17.72,9.06-31.73,9.06-.21,0-.41,0-.61,0-8.5-.09-17.11-2.07-24.93-5.73l-212.34-121.62-.04-.03-.04-.03c-6.22-3.52-15.11-9.95-22.17-20.63-8.24-12.46-10.37-25.03-10.69-33.45l-3-233.77v-.74s-.07-.74-.07-.74c-.6-6.87-.42-20.48,7.47-34.41,8.22-14.5,20.4-21.69,26.93-24.68l.89-.41.84-.49,189-110,1.09-.63,1-.76c6.79-5.19,21.11-14.03,40.75-14.91,1.06-.05,2.14-.07,3.2-.07h0M311.12,32.22c-1.35,0-2.72.03-4.1.09-26.92,1.21-45.4,13.95-52,19-63,36.67-126,73.33-189,110-6.26,2.87-24.12,12.04-36,33-11.33,19.99-10.61,39.03-10,46,1,78,2,156,3,234,.27,7.86,1.97,25.81,14,44,9.92,15,22.25,23.18,29,27,71,40.67,142,81.33,213,122,6.6,3.18,18.53,7.84,34,8,.27,0,.55,0,.82,0,20.63,0,35.75-8.07,42.18-12,67-38.33,134-76.67,201-115,6.97-3.63,24.82-14.12,36-36,7.75-15.16,8.93-29.21,9-37v-230c.54-8.54,1.06-34.48-16-60-13.45-20.12-31.69-29.64-40-34-39.08-20.49-100.29-55.5-180-101-6.01-4.41-26.13-18.09-54.9-18.09h0Z"/><path class="cls-1" d="M311.02,63.81c-1.38,0-2.5-1.12-2.5-2.5V21.31c0-1.38,1.12-2.5,2.5-2.5s2.5,1.12,2.5,2.5v40c0,1.38-1.12,2.5-2.5,2.5Z"/><path class="cls-2" d="M311.02,8.81h0c-6.9,0-12.5,5.6-12.5,12.5v40c0,6.9,5.6,12.5,12.5,12.5h0c6.9,0,12.5-5.6,12.5-12.5V21.31c0-6.9-5.6-12.5-12.5-12.5h0Z"/><path class="cls-1" d="M311.02,678.81c-1.38,0-2.5-1.12-2.5-2.5v-40c0-1.38,1.12-2.5,2.5-2.5s2.5,1.12,2.5,2.5v40c0,1.38-1.12,2.5-2.5,2.5Z"/><path class="cls-2" d="M311.02,623.81c-6.9,0-12.5,5.6-12.5,12.5v40c0,6.9,5.6,12.5,12.5,12.5s12.5-5.6,12.5-12.5v-40c0-6.9-5.6-12.5-12.5-12.5h0Z"/><path class="cls-1" d="M57.33,213.81c-.43,0-.85-.11-1.24-.34l-34.64-20c-.74-.43-1.04-1.06-1.16-1.52-.12-.46-.18-1.16.25-1.9.67-1.16,1.84-1.25,2.18-1.25.43,0,.85.11,1.24.34l34.64,20c.74.43,1.04,1.06,1.17,1.52.12.46.18,1.16-.25,1.9-.67,1.16-1.84,1.25-2.18,1.25Z"/><path class="cls-2" d="M22.71,178.81c-4.32,0-8.52,2.24-10.84,6.25-3.45,5.98-1.4,13.62,4.58,17.08l34.64,20c1.97,1.14,4.12,1.68,6.24,1.68,4.32,0,8.52-2.24,10.84-6.25h0c3.45-5.98,1.4-13.62-4.58-17.08l-34.64-20c-1.97-1.14-4.12-1.68-6.24-1.68h0Z"/><path class="cls-1" d="M603.33,512.81c-.43,0-.85-.11-1.24-.34l-34.64-20c-.74-.43-1.04-1.06-1.16-1.52-.12-.46-.18-1.16.25-1.9.67-1.16,1.84-1.25,2.18-1.25.43,0,.85.11,1.24.34l34.64,20c.74.43,1.04,1.06,1.17,1.52.12.46.18,1.16-.25,1.9-.67,1.16-1.84,1.25-2.18,1.25Z"/><path class="cls-2" d="M568.71,477.81c-4.32,0-8.52,2.24-10.84,6.25-3.45,5.98-1.4,13.62,4.58,17.08l34.64,20c1.97,1.14,4.12,1.68,6.24,1.68,4.32,0,8.52-2.24,10.84-6.25,3.45-5.98,1.4-13.62-4.58-17.08l-34.64-20c-1.97-1.14-4.12-1.68-6.24-1.68h0Z"/><path class="cls-1" d="M561.51,208.43c-.45,0-1.29-.12-1.95-.92-.54-.66-.6-1.36-.55-1.83.05-.47.25-1.14.91-1.68l31.03-25.24c.57-.46,1.17-.56,1.57-.56.45,0,1.29.12,1.95.92.54.66.6,1.36.55,1.83-.05.47-.25,1.14-.91,1.68l-31.03,25.24c-.57.46-1.17.56-1.57.56Z"/><path class="cls-2" d="M592.53,168.19c-2.77,0-5.56.92-7.88,2.8l-31.03,25.24c-5.36,4.36-6.17,12.23-1.81,17.58,2.47,3.04,6.07,4.61,9.71,4.61,2.77,0,5.56-.92,7.88-2.8l31.03-25.24c5.36-4.36,6.17-12.23,1.81-17.58-2.47-3.04-6.07-4.61-9.71-4.61h0Z"/><path class="cls-1" d="M26.51,526.43c-.45,0-1.29-.12-1.95-.92-.54-.66-.6-1.36-.55-1.83.05-.47.25-1.14.91-1.68l31.03-25.24c.57-.46,1.17-.56,1.57-.56.45,0,1.29.12,1.95.92.54.66.6,1.36.55,1.83-.05.47-.25,1.14-.91,1.68l-31.03,25.24c-.57.46-1.17.56-1.57.56Z"/><path class="cls-2" d="M57.53,486.19c-2.77,0-5.56.92-7.88,2.8l-31.03,25.24c-5.36,4.36-6.17,12.23-1.81,17.58,2.47,3.04,6.07,4.61,9.71,4.61,2.77,0,5.56-.92,7.88-2.8l31.03-25.24c5.36-4.36,6.17-12.23,1.81-17.58h0c-2.47-3.04-6.07-4.61-9.71-4.61h0Z"/></svg>